<svg width="43" height="37" viewBox="0 0 43 37" fill="none" xmlns="http://www.w3.org/2000/svg">
<path d="M7.16634 30.8334C6.18092 30.8334 5.33735 30.5315 4.63561 29.9277C3.93388 29.3239 3.58301 28.598 3.58301 27.7501V9.25008C3.58301 8.40216 3.93388 7.6763 4.63561 7.07248C5.33735 6.46866 6.18092 6.16675 7.16634 6.16675H35.833C36.8184 6.16675 37.662 6.46866 38.3637 7.07248C39.0655 7.6763 39.4163 8.40216 39.4163 9.25008V27.7501C39.4163 28.598 39.0655 29.3239 38.3637 29.9277C37.662 30.5315 36.8184 30.8334 35.833 30.8334H7.16634ZM21.4997 20.0417L7.16634 12.3334V27.7501H35.833V12.3334L21.4997 20.0417ZM21.4997 16.9584L35.833 9.25008H7.16634L21.4997 16.9584ZM7.16634 12.3334V9.25008V27.7501V12.3334Z" fill="white"/>
</svg>
