<svg width="20" height="21" viewBox="0 0 20 21" fill="none" xmlns="http://www.w3.org/2000/svg">
<path d="M5.83333 9.625V6.125C5.83333 4.96468 6.27232 3.85188 7.05372 3.03141C7.83512 2.21094 8.89493 1.75 10 1.75C11.1051 1.75 12.1649 2.21094 12.9463 3.03141C13.7277 3.85188 14.1667 4.96468 14.1667 6.125V9.625M4.16667 9.625H15.8333C16.7538 9.625 17.5 10.4085 17.5 11.375V17.5C17.5 18.4665 16.7538 19.25 15.8333 19.25H4.16667C3.24619 19.25 2.5 18.4665 2.5 17.5V11.375C2.5 10.4085 3.24619 9.625 4.16667 9.625Z" stroke="white" stroke-width="2" stroke-linecap="round" stroke-linejoin="round"/>
</svg>
