<svg width="21" height="19" viewBox="0 0 21 19" fill="none" xmlns="http://www.w3.org/2000/svg">
<rect x="0.5" y="0.5" width="14" height="18" rx="5.5" stroke="black"/>
<path d="M8 9.5C7.72386 9.5 7.5 9.72386 7.5 10C7.5 10.2761 7.72386 10.5 8 10.5V10V9.5ZM20.3536 10.3536C20.5488 10.1583 20.5488 9.84171 20.3536 9.64645L17.1716 6.46447C16.9763 6.2692 16.6597 6.2692 16.4645 6.46447C16.2692 6.65973 16.2692 6.97631 16.4645 7.17157L19.2929 10L16.4645 12.8284C16.2692 13.0237 16.2692 13.3403 16.4645 13.5355C16.6597 13.7308 16.9763 13.7308 17.1716 13.5355L20.3536 10.3536ZM8 10V10.5H20V10V9.5H8V10Z" fill="black"/>
</svg>
